inDegrees=yes
name=ik_S53_A13_T02
DataType=double
version=3
OpenSimVersion=4.3-2021-08-27-4bc7ad9
endheader
time	pelvis_tilt	pelvis_list	pelvis_rotation	pelvis_tx	pelvis_ty	pelvis_tz	hip_flexion_r	hip_adduction_r	hip_rotation_r	knee_angle_r	knee_angle_r_beta	ankle_angle_r	subtalar_angle_r	mtp_angle_r	hip_flexion_l	hip_adduction_l	hip_rotation_l	knee_angle_l	knee_angle_l_beta	ankle_angle_l	subtalar_angle_l	mtp_angle_l	lumbar_extension	lumbar_bending	lumbar_rotation	arm_flex_r	arm_add_r	arm_rot_r	elbow_flex_r	pro_sup_r	wrist_flex_r	wrist_dev_r	arm_flex_l	arm_add_l	arm_rot_l	elbow_flex_l	pro_sup_l	wrist_flex_l	wrist_dev_l
3.883333333333324	-2.388864758053243	-3.078502975934784	35.67796397736362	0	0.9399999999999999	0	20.07547522596344	-7.659953430496281	-6.340804359749479	23.9683509419264	0.4183266402100998	0	0	0	20.07547522596344	-7.659953430496281	-6.340804359749479	23.9683509419264	0.4183266402100998	0	0	0	-1.69847224713938	0.8292107047836458	10.43499582180305	33.43357636713547	-16.20991098290725	21.08800481157896	30.64370529243156	179.8960970583911	0	0	103.5262007861077	-48.72124719324741	67.22113520766375	42.15518313505299	89.70345468379162	0	0
3.899999999999991	-2.373093871858915	-3.079494556395635	35.7791091110868	0	0.9399999999999999	0	20.22098868797098	-7.692046088901342	-6.377414011256705	24.13718507177481	0.4212733516656943	0	0	0	20.22098868797098	-7.692046088901342	-6.377414011256705	24.13718507177481	0.4212733516656943	0	0	0	-1.698444792892079	0.8165855327678874	10.32638917139957	35.46769662363121	-15.52855544314618	20.64123287923738	32.67923608328889	179.881456394248	0	0	103.4706552870474	-48.78987427834549	67.14217623611474	42.41169362300954	89.70203701454115	0	0
3.916666666666658	-2.363711002355654	-3.064525609363762	35.89390014466886	0	0.9399999999999999	0	20.35840288921624	-7.722239068309799	-6.411928049158753	24.2961926588048	0.4240485575950189	0	0	0	20.35840288921624	-7.722239068309799	-6.411928049158753	24.2961926588048	0.4240485575950189	0	0	0	-1.693244047013136	0.8200706445249192	10.2283895387586	37.54027668439503	-14.72474940897895	20.1044752619423	34.5661230916122	179.8751008085223	0	0	103.4438111525982	-48.85669980216965	67.24424560631152	42.47159789445418	89.61141590208882	0	0
3.933333333333324	-2.357293959705235	-3.064060388969998	36.00081844024673	0	0.9399999999999999	0	20.50757355157057	-7.754535001652338	-6.449115421585229	24.4694065760417	0.4270717107610799	0	0	0	20.50757355157057	-7.754535001652338	-6.449115421585229	24.4694065760417	0.4270717107610799	0	0	0	-1.700959795947439	0.8156974666095985	10.11809247823408	39.7059261571555	-13.79726399414864	19.74599542249543	36.49781885014242	179.8664422499792	0	0	103.3719568041686	-48.8454793119913	67.22034863121637	42.82478656831703	89.3746265866918	0	0
3.949999999999991	-2.339375996641217	-3.052158010644257	36.13054007381623	0	0.9399999999999999	0	20.52046883131109	-7.758227424765399	-6.452873307058439	24.4817590851356	0.4272873027156509	0	0	0	20.52046883131109	-7.758227424765399	-6.452873307058439	24.4817590851356	0.4272873027156509	0	0	0	-1.681045194292532	0.8192377006938807	10.06138710116702	41.78363441041181	-12.88874411597564	19.72348435525763	34.24786534663225	179.8879411230687	0	0	103.2248409999499	-48.81507998215071	67.2418760696922	43.15899636808032	89.03755541327823	0	0
3.966666666666657	-2.306800394862021	-3.055753449187896	36.30535431165718	0	0.9399999999999999	0	20.68792123481185	-7.793385279255347	-6.49399926518331	24.67698791497627	0.4306946885911865	0	0	0	20.68792123481185	-7.793385279255347	-6.49399926518331	24.67698791497627	0.4306946885911865	0	0	0	-1.670018948367978	0.7956157680172711	9.937644187871538	41.77802709090734	-12.92118685719017	19.51511483671549	38.49463713951454	179.8468607359323	0	0	103.1317197914055	-48.79383460804031	67.14874106328703	43.50388066418205	88.91359373613359	0	0
3.983333333333324	-2.291839526437982	-3.050024481304524	36.50336526004534	0	0.9399999999999999	0	20.70319543914867	-7.797730331748772	-6.498438915439472	24.69157176764812	0.4309492248379361	0	0	0	20.70319543914867	-7.797730331748772	-6.498438915439472	24.69157176764812	0.4309492248379361	0	0	0	-1.658479282051637	0.7966062681830235	9.853847817920023	43.88247845093681	-11.94806635571246	19.59110445437953	36.17226537298013	179.8645566981395	0	0	103.0330142623278	-48.66259045174721	67.08818892652695	43.62055686513789	88.82108423182602	0	0
3.999999999999991	-2.254631859766404	-3.062829643540804	36.5685889355025	0	0.9399999999999999	0	20.71349982142467	-7.800669338997881	-6.501439268772012	24.70137870222019	0.4311203881357462	0	0	0	20.71349982142467	-7.800669338997881	-6.501439268772012	24.70137870222019	0.4311203881357462	0	0	0	-1.633990568968187	0.7608907085758022	9.892199565989166	43.82711107747679	-11.95067544797306	19.46044139962983	36.1539678145035	179.8640603073604	0	0	103.0050348590392	-48.5863010635732	67.00861287885199	44.09323341695572	88.87793957706847	0	0
4.016666666666658	-2.261316013032237	-3.033267918256987	36.71943533988251	0	0.9399999999999999	0	20.84409091286941	-7.82829579418453	-6.533622818257338	24.85332183468372	0.4337722960730286	0	0	0	20.84409091286941	-7.82829579418453	-6.533622818257338	24.85332183468372	0.4337722960730286	0	0	0	-1.634310557328989	0.7885421691720039	9.758025956396652	45.87630166919988	-10.94189662016787	19.50228310307035	38.06447427754185	179.7813342319947	0	0	102.8562697203816	-48.61302252265885	66.88304602568989	44.25411274893442	88.95486752440256	0	0
4.033333333333324	-2.229408300819699	-3.017992477355242	37.1626257649289	0	0.9399999999999999	0	21.09647312890102	-7.879936294253273	-6.594738507448914	25.15165595391571	0.4389792087246642	0	0	0	21.09647312890102	-7.879936294253273	-6.594738507448914	25.15165595391571	0.4389792087246642	0	0	0	-1.625059731100173	0.7879202914384049	9.431595462235896	47.9355995376097	-10.17845489313699	19.34425032826311	43.8960476323363	178.2339189961304	0	0	102.7624835073396	-48.50350236853475	66.88238271371387	44.51337704129015	88.81794133182268	0	0
4.049999999999991	-2.205931295210564	-3.038730475721297	37.37753167458382	0	0.9399999999999999	0	21.30798567158795	-7.923371389290254	-6.646069355856653	25.3991577268336	0.4432989295666048	0	0	0	21.30798567158795	-7.923371389290254	-6.646069355856653	25.3991577268336	0.4432989295666048	0	0	0	-1.636049520293751	0.7536214607318751	9.28387806192875	50.26200598764297	-9.259631109406063	19.29337074493801	45.65003023011538	177.8697647034189	0	0	102.9015882469688	-48.4164199651238	67.20204100390777	44.72198142277649	88.50382162094081	0	0
4.066666666666658	-2.168057228531143	-3.04261414423802	37.64223062088254	0	0.9399999999999999	0	21.31584696995067	-7.92554085330723	-6.648323197226302	25.4066325154743	0.4434293892392758	0	0	0	21.31584696995067	-7.92554085330723	-6.648323197226302	25.4066325154743	0.4434293892392758	0	0	0	-1.611987150146436	0.7328355912438566	9.222240916342647	52.42952786913456	-8.405406430252668	18.82103267190158	47.20664115420175	177.6052615987407	0	0	102.7650153303298	-48.18983861840959	67.14140448308986	44.93061523630717	88.46984143652448	0	0
4.083333333333324	-2.125354192835406	-3.066703852565569	37.89239124898722	0	0.9399999999999999	0	21.52560615062396	-7.967929109090711	-6.698814852724396	25.65258420986568	0.4477220561072642	0	0	0	21.52560615062396	-7.967929109090711	-6.698814852724396	25.65258420986568	0.4477220561072642	0	0	0	-1.607179421632823	0.6776785231415398	9.15241002248529	54.69427204636689	-7.405637153735475	18.31171449608611	48.29739736099858	177.0417442561434	0	0	102.7889288655608	-47.97224370687368	67.12838235156271	45.13946789108793	88.42668999371517	0	0
4.099999999999991	-2.09327367452084	-3.060372673369074	38.1729743565632	0	0.9399999999999999	0	21.73675277566604	-8.010081619263731	-6.749327580174711	25.90022060376118	0.4520441265285063	0	0	0	21.73675277566604	-8.010081619263731	-6.749327580174711	25.90022060376118	0.4520441265285063	0	0	0	-1.595210478334432	0.6587197652330167	9.026754733120477	56.8732267276002	-6.525843883419197	18.16306945717656	49.42914678965182	176.1601876051334	0	0	102.8015445285022	-47.82306642291951	67.19249251451591	45.21915136796027	88.34386792540511	0	0
